<svg id="Layer_1" data-name="Layer 1" xmlns="http://www.w3.org/2000/svg" viewBox="0 0 142.7 140.82"><defs><style>.cls-1{fill:#b96b01;}.cls-1,.cls-4,.cls-6{stroke:#42210b;}.cls-1,.cls-4,.cls-6,.cls-7{stroke-miterlimit:10;stroke-width:0.5px;}.cls-2{fill:#f7e2cf;}.cls-3{fill:#42210b;}.cls-4,.cls-9{fill:#fff;}.cls-5{fill:#f5d0be;}.cls-6,.cls-7{fill:none;}.cls-7{stroke:#000;}.cls-8{fill:#3f2311;}</style></defs><circle class="cls-1" cx="36.62" cy="15.55" r="15.3"/><circle class="cls-2" cx="38.65" cy="18.42" r="8.12"/><path class="cls-1" d="M18.79,73s0-.25,0-.72c-.16-6,.36-47.34,46.4-57.62,0,0,40.75-8.48,61.36,29.17,0,0,7.65,10,6.4,36.4,0,0,16.24,18.58-2.49,32.32s-90.71,10.93-104.14,1.09S1.62,86.48,18.79,73Z" transform="translate(-3.65 -4.46)"/><path class="cls-3" d="M58.43,16.43a34.2,34.2,0,0,1,9.09-2.19s-2.47,12.18-8.24,14.32C59.28,28.56,54.73,30.27,58.43,16.43Z" transform="translate(-3.65 -4.46)"/><path class="cls-3" d="M73.22,13.79h6.14s-2.7,21.22-10.14,23c0,0-3.86.82-1.75-7.77A69.75,69.75,0,0,1,73.22,13.79Z" transform="translate(-3.65 -4.46)"/><path class="cls-3" d="M86.36,14.87a18.58,18.58,0,0,1,7.38,1.73s-2.12,10.76-7.18,14.32A2,2,0,0,1,83.4,30C82.38,28.11,83.28,22.42,86.36,14.87Z" transform="translate(-3.65 -4.46)"/><path class="cls-4" d="M93.79,69.56c.44-8.32-4-15.3-9.92-15.6s-11.06,6.21-11.5,14.53c-.27,5.22,1.38,9.91,4.11,12.76H89A17.72,17.72,0,0,0,93.79,69.56Z" transform="translate(-3.65 -4.46)"/><path class="cls-4" d="M76.31,85.6" transform="translate(-3.65 -4.46)"/><path class="cls-4" d="M88.79,85.6" transform="translate(-3.65 -4.46)"/><path class="cls-3" d="M79.19,68.7a1,1,0,0,1,1.39-.63l4.72,2.27-3.46-4.72a1,1,0,0,1,.44-1.5c2.69-1.1,9.37-2.64,11.21,8,0,0-2.31,8.09-4.52,9.1L80.46,81S76.56,78.19,79.19,68.7Z" transform="translate(-3.65 -4.46)"/><path class="cls-4" d="M54.86,66.75c.42-8.18-3.86-15-9.56-15.34S34.65,57.52,34.23,65.7c-.26,5.13,1.33,9.74,4,12.54h12A17.54,17.54,0,0,0,54.86,66.75Z" transform="translate(-3.65 -4.46)"/><path class="cls-4" d="M38,82.52" transform="translate(-3.65 -4.46)"/><path class="cls-4" d="M50,82.52" transform="translate(-3.65 -4.46)"/><path class="cls-3" d="M41.26,65.94a1,1,0,0,1,1.36-.62l4.75,2.28-3.45-4.71a1,1,0,0,1,.43-1.47c2.63-1,9-2.25,10.29,7.43,0,0-2.21,8.39-4.43,9.39H42.53S38.61,75.44,41.26,65.94Z" transform="translate(-3.65 -4.46)"/><path class="cls-2" d="M31.6,77.62c4,3.63,2.6,4.9,10.45,7.19,2.41.7,21.08-3.35,30.76.23s15.46,3.26,22.8,1.24,16.13-8.09,26.81-8.89c0,0,6.61-.8,11,3.4,0,0,15.86,18.78-3.83,32.3-19.16,13.15-89.86,10.34-103.29.5S1.62,86.48,18.79,73C18.79,73,26.59,73.08,31.6,77.62Z" transform="translate(-3.65 -4.46)"/><path class="cls-5" d="M18.64,85a16.5,16.5,0,0,0-8.57,2.31c-.27,2.52-.12,9.06,6.46,17.11a18.06,18.06,0,0,0,2.11.15c7.42,0,13.43-4.38,13.43-9.78S26.06,85,18.64,85Z" transform="translate(-3.65 -4.46)"/><path class="cls-6" d="M18.79,73s0-.25,0-.72c-.16-6,.36-47.34,46.4-57.62,0,0,40.75-8.48,61.36,29.17,0,0,7.65,10,6.4,36.4,0,0,16.24,18.58-2.49,32.32s-90.71,10.93-104.14,1.09S1.62,86.48,18.79,73Z" transform="translate(-3.65 -4.46)"/><path class="cls-1" d="M120.7,41.75a17.08,17.08,0,1,0-17.06-17.46" transform="translate(-3.65 -4.46)"/><ellipse class="cls-4" cx="57.14" cy="87.9" rx="21.39" ry="17.95"/><ellipse class="cls-3" cx="57.89" cy="83.56" rx="6.17" ry="8.74" transform="translate(-32.16 132.67) rotate(-87.08)"/><path class="cls-6" d="M47.37,92.36s8.11,5.93,20.45,1.25" transform="translate(-3.65 -4.46)"/><path class="cls-4" d="M53.14,94.78v2.86a2.23,2.23,0,0,0,2.42,1.93h3.75a2.23,2.23,0,0,0,2.42-1.93V95.18A28.57,28.57,0,0,1,53.14,94.78Z" transform="translate(-3.65 -4.46)"/><path class="cls-7" d="M35.6,77.41" transform="translate(-3.65 -4.46)"/><ellipse class="cls-5" cx="99.3" cy="96.07" rx="13.43" ry="9.78"/><path class="cls-2" d="M125.15,27.37A8.49,8.49,0,0,0,109,23.6c3.8,2.47,8.5,6.26,11.53,11.29A8.5,8.5,0,0,0,125.15,27.37Z" transform="translate(-3.65 -4.46)"/><rect class="cls-8" y="109.13" width="142.7" height="31.69" rx="5.51"/><path class="cls-9" d="M19.26,132.82a8,8,0,0,0,2.61-3.09,10.15,10.15,0,0,0,1-4.54v-1.7H15.64v-3.28H25.81a.8.8,0,0,1,.8.8v4a14.14,14.14,0,0,1-1.45,6.57,11.18,11.18,0,0,1-4,4.41,12.24,12.24,0,0,1-5.65,1.84V134.3A8.73,8.73,0,0,0,19.26,132.82Zm9.58-13.22h3.85v7.07h1.92V130H32.69v8.5H28.84Z" transform="translate(-3.65 -4.46)"/><path class="cls-9" d="M36.35,120.07H44a.8.8,0,0,1,.8.8v8a.8.8,0,0,1-.8.81H36.35a.81.81,0,0,1-.81-.81v-8A.8.8,0,0,1,36.35,120.07Zm1,11.8a4.46,4.46,0,0,1,3.19-1.05h9.11a4.45,4.45,0,0,1,3.17,1,4.15,4.15,0,0,1,0,5.65,4.41,4.41,0,0,1-3.17,1H40.58a4.46,4.46,0,0,1-3.19-1.05,4.15,4.15,0,0,1,0-5.63Zm4-5v-4H38.92v4Zm-.85,8.71a1.47,1.47,0,0,0,1,.34h7.06a1.42,1.42,0,0,0,1-.34,1.21,1.21,0,0,0,.37-.94,1.24,1.24,0,0,0-.37-.94,1.43,1.43,0,0,0-1-.35H41.6a1.47,1.47,0,0,0-1,.35,1.27,1.27,0,0,0-.36.94A1.24,1.24,0,0,0,40.56,135.62Zm9.94-9.28H49.39v3.85H46.05V119.6h3.34v3.79H50.5V119.6h3.34v10.59H50.5Z" transform="translate(-3.65 -4.46)"/><path class="cls-9" d="M74.19,131.51H67v2.73H63.12v-2.73H55.57v-3H74.19ZM57.1,119.79H72.66a.8.8,0,0,1,.8.8v6a.8.8,0,0,1-.8.8H57.1a.8.8,0,0,1-.81-.8v-6A.8.8,0,0,1,57.1,119.79Zm-.69,13.41a.8.8,0,0,1,.81-.8h3.14v3.18h13.2v2.91H57.22a.8.8,0,0,1-.81-.8Zm13.2-8.54v-2.1H60.14v2.1Z" transform="translate(-3.65 -4.46)"/><path class="cls-9" d="M75.81,137.68v-3.22h9.13a29.91,29.91,0,0,0,4.25-.24v3.22a29.91,29.91,0,0,1-4.25.24Zm2-16.56a7.71,7.71,0,0,1,8.54,0A4.62,4.62,0,0,1,88,125v1.94a4.62,4.62,0,0,1-1.63,3.83,7.66,7.66,0,0,1-8.54,0,4.6,4.6,0,0,1-1.63-3.83V125A4.6,4.6,0,0,1,77.79,121.12Zm2.75,7.47a2.52,2.52,0,0,0,1.53.45,2.56,2.56,0,0,0,1.53-.45,1.57,1.57,0,0,0,.61-1.35V124.6a1.54,1.54,0,0,0-.63-1.35,2.78,2.78,0,0,0-3,0,1.54,1.54,0,0,0-.63,1.35v2.64A1.56,1.56,0,0,0,80.54,128.59Zm9.64-9H94v18.89H90.18Z" transform="translate(-3.65 -4.46)"/><path class="cls-9" d="M105.86,136.8a6.31,6.31,0,0,1-7.7,0,4.94,4.94,0,0,1-1.44-3.86v-6.33a4.37,4.37,0,0,1,.41-1.92h-1.3v-3H100v-2.13H104v2.13h4.23v3h-1.3a4.37,4.37,0,0,1,.41,1.92v6.33A5,5,0,0,1,105.86,136.8Zm-2.65-2.3a1.82,1.82,0,0,0,.44-1.33v-6.94c0-1.14-.55-1.71-1.64-1.71a1.5,1.5,0,0,0-1.67,1.71v6.94a1.78,1.78,0,0,0,.45,1.33A1.64,1.64,0,0,0,102,135,1.59,1.59,0,0,0,103.21,134.5Zm6.61-14.9h3.85v7.07h1.92V130h-1.92v8.5h-3.85Z" transform="translate(-3.65 -4.46)"/><path class="cls-9" d="M120.53,132.87a8,8,0,0,0,2.65-3.12,10.22,10.22,0,0,0,1-4.6v-1.62h-7.29v-3.28h10.27a.8.8,0,0,1,.81.8v4a14.14,14.14,0,0,1-1.47,6.6,11.21,11.21,0,0,1-4,4.44,12.09,12.09,0,0,1-5.7,1.84v-3.55A8.67,8.67,0,0,0,120.53,132.87Zm10.14-13.27h3.85v18.89h-3.85Z" transform="translate(-3.65 -4.46)"/></svg>